<?xml version="1.0" encoding="UTF-8" standalone="no"?>
<svg
   version="1.1"
   viewBox="0 0 1024 1024"
   width="1024.0pt"
   height="1024.0pt"
   id="svg1528"
   sodipodi:docname="planet_KeybotoDev.svg"
   inkscape:version="1.2.2 (b0a8486541, 2022-12-01)"
   inkscape:export-filename="KeybotoDev2.png"
   inkscape:export-xdpi="96"
   inkscape:export-ydpi="96"
   xmlns:inkscape="http://www.inkscape.org/namespaces/inkscape"
   xmlns:sodipodi="http://sodipodi.sourceforge.net/DTD/sodipodi-0.dtd"
   xmlns:xlink="http://www.w3.org/1999/xlink"
   xmlns="http://www.w3.org/2000/svg"
   xmlns:svg="http://www.w3.org/2000/svg">
  <defs
     id="defs1532">
    <color-profile
       name="Built-in-display"
       xlink:href="../../../.local/share/icc/edid-44f5670469c9865af3181d03e1a04039.icc"
       id="color-profile1968" />
  </defs>
  <sodipodi:namedview
     id="namedview1530"
     pagecolor="#e1dbce"
     bordercolor="#a3a3a3"
     borderopacity="1"
     inkscape:showpageshadow="0"
     inkscape:pageopacity="1"
     inkscape:pagecheckerboard="0"
     inkscape:deskcolor="#e6e6e6"
     inkscape:document-units="pt"
     showgrid="false"
     inkscape:zoom="0.874216"
     inkscape:cx="855.05184"
     inkscape:cy="1014.0515"
     inkscape:window-width="1920"
     inkscape:window-height="1003"
     inkscape:window-x="1368"
     inkscape:window-y="49"
     inkscape:window-maximized="1"
     inkscape:current-layer="svg1528">
    <inkscape:grid
       type="xygrid"
       id="grid1692" />
  </sodipodi:namedview>
  <path
     d="M 506.53 774.13 C 512.11 776.59 517.82 774.93 523.74 776.51 L 525.26 777.07 C 522.84 782.60 524.68 787.34 524.80 793.03 C 522.28 793.67 519.79 794.44 517.33 795.26 C 515.15 792.90 514.31 791.28 510.66 791.79 C 511.07 793.11 511.51 794.41 512.04 795.68 L 511.44 797.33 C 510.94 799.66 509.53 801.21 508.14 803.07 L 507.63 803.72 L 508.84 805.02 C 510.26 805.92 511.69 806.80 513.13 807.67 C 511.86 809.90 511.14 812.23 510.65 814.73 C 510.12 814.33 509.59 813.92 509.07 813.52 C 508.58 813.85 508.09 814.18 507.60 814.51 C 505.71 815.19 504.58 817.24 506.84 818.32 C 506.66 819.74 506.59 821.17 506.53 822.60 C 507.38 822.11 508.22 821.63 509.07 821.16 C 508.91 822.07 509.27 822.86 510.14 823.52 C 510.38 824.07 510.62 824.62 510.86 825.17 C 509.87 826.01 508.89 826.84 507.92 827.70 C 506.52 828.64 506.84 830.49 508.02 831.47 C 507.41 831.88 506.81 832.28 506.20 832.69 C 505.48 832.65 504.75 832.62 504.03 832.60 C 503.63 833.35 503.25 834.12 502.89 834.90 L 502.42 836.02 C 500.03 835.99 497.64 835.98 495.25 835.94 C 493.27 834.70 491.24 833.57 489.05 832.72 C 489.53 831.80 489.22 831.23 488.10 831.00 C 490.26 828.16 491.33 827.22 495.03 827.48 C 496.13 827.50 497.24 827.52 498.34 827.56 C 498.62 826.78 498.90 826.00 499.18 825.22 L 499.57 824.32 C 498.37 824.05 497.17 823.78 495.98 823.48 C 496.99 822.79 496.96 821.90 495.91 820.81 L 496.58 819.72 C 495.57 820.01 494.56 820.30 493.55 820.59 C 493.12 821.70 492.70 822.82 492.24 823.92 C 492.01 822.98 491.99 819.96 490.33 821.33 C 489.99 822.75 489.72 824.18 489.53 825.64 C 489.02 825.95 488.52 826.27 488.01 826.58 C 485.24 825.87 482.45 825.27 479.64 824.71 C 479.21 821.87 479.01 819.32 476.76 817.24 C 472.55 813.15 468.77 808.66 464.55 804.59 C 466.61 801.63 468.76 798.74 470.67 795.68 C 472.43 792.98 473.75 790.37 476.38 788.37 C 480.71 785.01 485.83 782.59 490.50 779.72 C 495.56 777.22 501.28 776.23 506.53 774.13 Z"
     fill="#2b4a49"
     id="path1316" />
  <path
     d="M 531.24 776.60 C 535.51 777.17 538.09 780.71 542.40 781.33 C 548.06 784.43 553.14 788.75 557.54 793.46 C 563.07 799.56 566.67 807.92 569.84 815.45 C 567.33 819.57 566.33 823.55 562.91 826.92 C 559.72 830.04 556.50 833.07 553.66 836.53 C 552.22 837.77 552.98 839.36 554.80 839.33 C 557.82 840.45 560.91 841.65 563.65 843.36 C 565.03 844.17 565.30 845.84 565.81 847.23 C 562.08 845.91 558.88 844.31 554.80 844.68 C 549.49 845.09 544.28 845.08 539.00 844.29 C 539.38 843.99 539.76 843.68 540.13 843.37 C 541.29 842.20 542.40 842.13 541.78 840.22 C 540.81 840.03 539.83 839.87 538.84 839.74 C 537.08 841.71 535.43 843.75 534.24 846.13 C 532.63 845.47 531.42 846.52 530.90 848.00 C 530.03 849.86 529.09 851.70 528.18 853.54 C 527.43 853.56 526.68 853.57 525.94 853.56 C 525.26 852.31 524.59 851.01 523.78 849.85 C 521.28 849.58 518.58 850.00 516.10 850.34 C 515.90 848.73 515.67 847.12 515.48 845.52 C 515.78 843.15 515.94 840.78 516.08 838.41 C 517.32 838.02 518.55 837.63 519.79 837.24 C 519.53 837.80 519.27 838.35 519.00 838.91 C 518.49 839.88 517.56 841.60 519.08 842.15 C 520.79 842.17 521.33 840.18 520.63 838.87 C 521.71 838.63 522.80 838.36 523.88 838.04 C 524.55 839.09 526.72 839.72 526.90 837.99 C 526.57 837.16 525.83 836.73 524.69 836.71 C 525.26 834.70 525.67 832.75 526.92 831.02 L 527.88 829.61 L 528.44 830.14 C 529.28 830.94 530.12 831.73 530.97 832.52 C 531.35 831.54 531.72 830.55 532.10 829.57 C 533.11 829.42 534.13 829.29 535.15 829.19 L 536.87 828.69 C 539.32 826.20 541.58 823.67 544.64 821.90 C 544.47 824.01 544.26 826.12 544.01 828.23 C 546.04 828.84 547.74 829.69 549.91 829.20 C 556.44 827.88 562.07 823.29 564.01 816.83 C 564.58 813.96 564.34 810.85 563.80 807.98 C 563.51 806.23 561.58 804.88 560.53 803.51 C 558.35 801.11 557.81 797.03 555.30 795.01 C 548.23 789.64 541.80 784.20 533.87 780.09 C 531.11 778.70 528.27 778.16 525.26 777.07 L 523.74 776.51 C 526.29 776.40 528.69 776.16 531.24 776.60 Z"
     fill="#2b3e33"
     id="path1320" />
  <path
     d="M 525.26 777.07 C 528.27 778.16 531.11 778.70 533.87 780.09 C 541.80 784.20 548.23 789.64 555.30 795.01 C 553.51 795.39 551.77 795.89 550.01 796.38 C 551.42 800.66 554.64 803.61 556.58 807.56 C 557.95 809.56 555.50 813.75 553.05 813.38 C 551.27 812.91 551.49 809.89 551.11 808.42 C 551.25 805.35 547.54 804.15 545.04 804.54 C 542.22 805.32 539.77 807.81 538.22 810.22 C 536.79 812.11 538.34 814.23 538.84 816.18 C 538.33 816.85 537.82 817.51 537.30 818.17 C 536.57 816.25 534.34 817.22 534.89 819.09 C 530.87 818.59 529.83 813.37 528.20 810.32 C 525.04 810.46 522.08 810.94 519.02 811.74 C 519.28 810.79 519.53 809.83 519.77 808.88 C 521.93 809.47 523.18 807.14 521.19 805.90 C 522.05 805.12 522.90 804.34 523.76 803.56 C 522.83 802.18 521.90 800.51 520.56 799.50 C 517.86 799.40 515.00 800.59 512.42 801.35 C 512.64 803.65 513.01 805.90 513.80 808.09 L 513.13 807.67 C 511.69 806.80 510.26 805.92 508.84 805.02 C 509.31 804.00 509.07 803.35 508.14 803.07 C 509.53 801.21 510.94 799.66 511.44 797.33 C 513.14 797.54 513.34 796.99 512.04 795.68 C 511.51 794.41 511.07 793.11 510.66 791.79 C 514.31 791.28 515.15 792.90 517.33 795.26 C 519.79 794.44 522.28 793.67 524.80 793.03 C 524.68 787.34 522.84 782.60 525.26 777.07 Z"
     fill="#33534a"
     id="path1322" />
  <path
     d="M 555.30 795.01 C 557.81 797.03 558.35 801.11 560.53 803.51 C 561.58 804.88 563.51 806.23 563.80 807.98 C 564.34 810.85 564.58 813.96 564.01 816.83 C 562.07 823.29 556.44 827.88 549.91 829.20 C 547.74 829.69 546.04 828.84 544.01 828.23 C 544.26 826.12 544.47 824.01 544.64 821.90 C 541.58 823.67 539.32 826.20 536.87 828.69 C 537.27 827.56 536.96 826.93 535.95 826.80 C 534.93 827.26 534.67 828.05 535.15 829.19 C 534.13 829.29 533.11 829.42 532.10 829.57 C 530.87 829.75 529.66 829.94 528.44 830.14 L 527.88 829.61 C 527.03 828.51 525.11 828.34 524.88 830.01 C 525.14 830.85 525.82 831.19 526.92 831.02 C 525.67 832.75 525.26 834.70 524.69 836.71 L 523.88 838.04 C 522.80 838.36 521.71 838.63 520.63 838.87 L 519.00 838.91 C 519.27 838.35 519.53 837.80 519.79 837.24 C 518.55 837.63 517.32 838.02 516.08 838.41 C 515.09 838.72 514.10 839.02 513.11 839.34 C 513.41 840.25 513.80 841.16 513.99 842.11 C 513.57 842.92 512.95 843.65 512.41 844.39 C 510.99 844.19 509.56 844.00 508.13 843.82 L 507.21 842.68 C 506.69 842.07 506.17 841.47 505.66 840.86 C 505.05 841.15 504.44 841.44 503.82 841.73 C 504.61 840.53 504.20 838.49 502.45 839.42 C 501.90 840.03 501.86 840.80 502.32 841.70 C 501.25 841.19 500.15 840.64 499.03 840.25 C 497.45 841.20 496.08 842.66 494.85 844.02 C 495.26 842.71 495.62 841.34 496.18 840.09 C 497.42 838.70 499.92 838.45 501.65 837.92 C 501.90 837.29 502.16 836.65 502.42 836.02 L 502.89 834.90 C 503.83 835.22 504.76 835.54 505.70 835.86 C 505.87 834.80 506.04 833.75 506.20 832.69 C 506.81 832.28 507.41 831.88 508.02 831.47 C 510.01 830.41 510.41 828.40 507.92 827.70 C 508.89 826.84 509.87 826.01 510.86 825.17 C 510.62 824.62 510.38 824.07 510.14 823.52 C 510.96 822.66 511.17 821.77 510.77 820.84 L 509.07 821.16 C 508.22 821.63 507.38 822.11 506.53 822.60 C 506.59 821.17 506.66 819.74 506.84 818.32 C 507.99 817.08 508.24 815.80 507.60 814.51 C 508.09 814.18 508.58 813.85 509.07 813.52 C 509.59 813.92 510.12 814.33 510.65 814.73 C 511.27 815.20 511.90 815.67 512.52 816.13 C 512.57 814.98 512.62 813.82 512.66 812.67 C 513.51 812.05 514.36 811.43 515.22 810.81 C 514.75 809.90 514.27 808.99 513.80 808.09 C 513.01 805.90 512.64 803.65 512.42 801.35 C 515.00 800.59 517.86 799.40 520.56 799.50 C 521.90 800.51 522.83 802.18 523.76 803.56 C 522.90 804.34 522.05 805.12 521.19 805.90 C 520.38 806.57 519.91 807.57 519.77 808.88 C 519.53 809.83 519.28 810.79 519.02 811.74 C 522.08 810.94 525.04 810.46 528.20 810.32 C 529.83 813.37 530.87 818.59 534.89 819.09 C 535.84 819.52 536.65 819.21 537.30 818.17 C 537.82 817.51 538.33 816.85 538.84 816.18 C 538.34 814.23 536.79 812.11 538.22 810.22 C 539.77 807.81 542.22 805.32 545.04 804.54 C 547.54 804.15 551.25 805.35 551.11 808.42 C 551.49 809.89 551.27 812.91 553.05 813.38 C 555.50 813.75 557.95 809.56 556.58 807.56 C 554.64 803.61 551.42 800.66 550.01 796.38 C 551.77 795.89 553.51 795.39 555.30 795.01 Z"
     fill="#2f493e"
     id="path1336" />
  <path
     d="M 512.04 795.68 C 513.34 796.99 513.14 797.54 511.44 797.33 L 512.04 795.68 Z"
     fill="#849b9d"
     id="path1340" />
  <path
     d="M 526.32 801.31 C 527.56 800.01 529.61 801.29 528.67 802.94 C 527.42 804.24 525.37 802.96 526.32 801.31 Z"
     fill="#7a908c"
     id="path1346" />
  <path
     d="M 493.24 802.27 C 494.70 802.45 494.71 804.50 493.24 804.68 C 491.80 804.46 491.80 802.49 493.24 802.27 Z"
     fill="#a0b3b3"
     id="path1352" />
  <path
     d="M 508.14 803.07 C 509.07 803.35 509.31 804.00 508.84 805.02 L 507.63 803.72 L 508.14 803.07 Z"
     fill="#a3bab5"
     id="path1356" />
  <path
     d="M 464.55 804.59 C 468.77 808.66 472.55 813.15 476.76 817.24 C 479.01 819.32 479.21 821.87 479.64 824.71 C 482.45 825.27 485.24 825.87 488.01 826.58 C 488.52 826.27 489.02 825.95 489.53 825.64 C 490.37 825.18 491.89 824.90 492.24 823.92 C 492.70 822.82 493.12 821.70 493.55 820.59 C 494.56 820.30 495.57 820.01 496.58 819.72 L 495.91 820.81 C 495.24 821.63 495.02 822.45 495.23 823.28 L 495.98 823.48 C 497.17 823.78 498.37 824.05 499.57 824.32 L 499.18 825.22 C 497.91 825.27 496.64 825.32 495.36 825.35 C 495.25 826.06 495.14 826.77 495.03 827.48 C 491.33 827.22 490.26 828.16 488.10 831.00 L 487.62 831.63 L 489.05 832.72 C 491.24 833.57 493.27 834.70 495.25 835.94 C 497.64 835.98 500.03 835.99 502.42 836.02 C 502.16 836.65 501.90 837.29 501.65 837.92 C 499.92 838.45 497.42 838.70 496.18 840.09 C 495.62 841.34 495.26 842.71 494.85 844.02 C 493.94 847.44 492.23 849.76 489.72 852.18 C 482.87 850.64 476.71 851.73 470.08 853.55 C 467.30 851.54 464.43 849.68 461.33 848.19 C 459.81 843.19 458.34 838.31 458.25 833.04 C 457.74 823.62 459.16 812.57 464.55 804.59 Z"
     fill="#263f3d"
     id="path1360" />
  <path
     d="M 536.23 805.12 C 538.02 803.93 539.18 806.71 537.07 807.12 C 535.94 806.80 535.66 806.13 536.23 805.12 Z"
     fill="#a5b5af"
     id="path1362" />
  <path
     d="M 521.19 805.90 C 523.18 807.14 521.93 809.47 519.77 808.88 C 519.91 807.57 520.38 806.57 521.19 805.90 Z"
     fill="#9aaea9"
     id="path1364" />
  <path
     d="M 513.13 807.67 L 513.80 808.09 C 514.27 808.99 514.75 809.90 515.22 810.81 C 514.36 811.43 513.51 812.05 512.66 812.67 C 512.62 813.82 512.57 814.98 512.52 816.13 C 511.90 815.67 511.27 815.20 510.65 814.73 C 511.14 812.23 511.86 809.90 513.13 807.67 Z"
     fill="#799791"
     id="path1366" />
  <path
     d="M 531.31 808.10 C 533.11 806.92 534.26 809.70 532.14 810.10 C 531.01 809.78 530.73 809.11 531.31 808.10 Z"
     fill="#8fa39c"
     id="path1368" />
  <path
     d="M 532.24 812.25 C 533.89 811.32 535.18 813.38 533.88 814.62 C 532.24 815.54 530.95 813.49 532.24 812.25 Z"
     fill="#748f8a"
     id="path1380" />
  <path
     d="M 499.34 813.05 L 500.06 812.63 L 500.78 813.04 L 500.78 813.87 L 500.06 814.28 L 499.34 813.87 L 499.34 813.05 Z"
     fill="#81a299"
     id="path1382" />
  <path
     d="M 489.05 814.24 L 489.88 814.24 L 490.29 814.96 L 489.88 815.68 L 489.06 815.68 L 488.64 814.96 L 489.05 814.24 Z"
     fill="#88a5a1"
     id="path1388" />
  <path
     d="M 507.60 814.51 C 508.24 815.80 507.99 817.08 506.84 818.32 C 504.58 817.24 505.71 815.19 507.60 814.51 Z"
     fill="#88a3a2"
     id="path1390" />
  <path
     d="M 521.06 815.35 L 521.89 815.35 L 522.29 816.07 L 521.88 816.79 L 521.05 816.79 L 520.65 816.06 L 521.06 815.35 Z"
     fill="#899d98"
     id="path1392" />
  <path
     d="M 514.29 816.31 C 515.94 815.37 517.25 817.41 515.95 818.66 C 514.31 819.59 512.99 817.56 514.29 816.31 Z"
     fill="#758a88"
     id="path1394" />
  <path
     d="M 527.06 816.26 L 527.89 816.26 L 528.30 816.98 L 527.89 817.70 L 527.06 817.70 L 526.65 816.98 L 527.06 816.26 Z"
     fill="#81a396"
     id="path1396" />
  <path
     d="M 569.84 815.45 C 571.06 820.94 570.50 826.43 571.49 831.99 C 572.17 834.72 571.15 836.93 570.54 839.52 C 569.54 843.30 569.06 847.22 568.26 851.08 C 567.57 850.93 566.88 850.77 566.19 850.61 C 566.08 849.48 565.95 848.35 565.81 847.23 C 565.30 845.84 565.03 844.17 563.65 843.36 C 560.91 841.65 557.82 840.45 554.80 839.33 C 555.11 838.11 554.73 837.18 553.66 836.53 C 556.50 833.07 559.72 830.04 562.91 826.92 C 566.33 823.55 567.33 819.57 569.84 815.45 Z"
     fill="#202b24"
     id="path1398" />
  <path
     d="M 537.30 818.17 C 536.65 819.21 535.84 819.52 534.89 819.09 C 534.34 817.22 536.57 816.25 537.30 818.17 Z"
     fill="#9db3af"
     id="path1400" />
  <path
     d="M 500.26 818.97 L 500.98 818.56 L 501.70 818.97 L 501.70 819.80 L 500.98 820.21 L 500.26 819.80 L 500.26 818.97 Z"
     fill="#94aaa9"
     id="path1404" />
  <path
     d="M 490.33 821.33 C 491.99 819.96 492.01 822.98 492.24 823.92 C 491.89 824.90 490.37 825.18 489.53 825.64 C 489.72 824.18 489.99 822.75 490.33 821.33 Z"
     fill="#739491"
     id="path1406" />
  <path
     d="M 495.91 820.81 C 496.96 821.90 496.99 822.79 495.98 823.48 L 495.23 823.28 C 495.02 822.45 495.24 821.63 495.91 820.81 Z"
     fill="#96b1b0"
     id="path1408" />
  <path
     d="M 509.07 821.16 L 510.77 820.84 C 511.17 821.77 510.96 822.66 510.14 823.52 C 509.27 822.86 508.91 822.07 509.07 821.16 Z"
     fill="#8aafad"
     id="path1410" />
  <path
     d="M 516.06 821.17 C 517.84 819.99 518.99 822.77 516.89 823.18 C 515.75 822.87 515.48 822.20 516.06 821.17 Z"
     fill="#6d887f"
     id="path1412" />
  <path
     d="M 520.49 822.14 C 521.64 820.98 523.51 822.20 522.64 823.68 C 521.49 824.83 519.63 823.62 520.49 822.14 Z"
     fill="#6e8f85"
     id="path1414" />
  <path
     d="M 549.31 822.02 L 550.02 821.60 L 550.75 822.01 L 550.75 822.84 L 550.03 823.25 L 549.31 822.84 L 549.31 822.02 Z"
     fill="#9fb2aa"
     id="path1416" />
  <path
     d="M 503.23 824.30 C 505.04 823.12 506.18 825.87 504.05 826.29 C 502.90 825.98 502.63 825.32 503.23 824.30 Z"
     fill="#84a5a5"
     id="path1420" />
  <path
     d="M 495.36 825.35 C 496.64 825.32 497.91 825.27 499.18 825.22 C 498.90 826.00 498.62 826.78 498.34 827.56 C 497.24 827.52 496.13 827.50 495.03 827.48 C 495.14 826.77 495.25 826.06 495.36 825.35 Z"
     fill="#6c8f8e"
     id="path1422" />
  <path
     d="M 525.18 825.22 C 526.96 824.04 528.11 826.81 526.01 827.23 C 524.88 826.92 524.60 826.25 525.18 825.22 Z"
     fill="#608a80"
     id="path1424" />
  <path
     d="M 512.06 826.04 C 513.84 824.84 515.02 827.57 512.91 828.03 C 511.77 827.73 511.48 827.07 512.06 826.04 Z"
     fill="#839d98"
     id="path1426" />
  <path
     d="M 535.95 826.80 C 536.96 826.93 537.27 827.56 536.87 828.69 L 535.15 829.19 C 534.67 828.05 534.93 827.26 535.95 826.80 Z"
     fill="#889f95"
     id="path1428" />
  <path
     d="M 507.92 827.70 C 510.41 828.40 510.01 830.41 508.02 831.47 C 506.84 830.49 506.52 828.64 507.92 827.70 Z"
     fill="#8ca5a1"
     id="path1430" />
  <path
     d="M 479.20 829.13 C 481.00 827.94 482.14 830.70 480.03 831.12 C 478.89 830.81 478.62 830.14 479.20 829.13 Z"
     fill="#8d9c9e"
     id="path1432" />
  <path
     d="M 517.27 829.12 L 518.00 828.70 L 518.72 829.11 L 518.72 829.94 L 518.00 830.35 L 517.28 829.94 L 517.27 829.12 Z"
     fill="#9db3af"
     id="path1434" />
  <path
     d="M 527.88 829.61 L 526.92 831.02 C 525.82 831.19 525.14 830.85 524.88 830.01 C 525.11 828.34 527.03 828.51 527.88 829.61 Z"
     fill="#6d867f"
     id="path1436" />
  <path
     d="M 532.10 829.57 C 531.72 830.55 531.35 831.54 530.97 832.52 C 530.12 831.73 529.28 830.94 528.44 830.14 C 529.66 829.94 530.87 829.75 532.10 829.57 Z"
     fill="#667f79"
     id="path1438" />
  <path
     d="M 471.31 830.28 C 473.10 829.07 474.24 831.84 472.13 832.26 C 470.99 831.96 470.71 831.30 471.31 830.28 Z"
     fill="#869a98"
     id="path1440" />
  <path
     d="M 500.04 830.06 C 501.82 828.87 502.96 831.63 500.87 832.06 C 499.73 831.76 499.45 831.09 500.04 830.06 Z"
     fill="#618481"
     id="path1442" />
  <path
     d="M 488.10 831.00 C 489.22 831.23 489.53 831.80 489.05 832.72 L 487.62 831.63 L 488.10 831.00 Z"
     fill="#819a96"
     id="path1444" />
  <path
     d="M 495.00 831.27 L 495.83 831.26 L 496.24 831.98 L 495.83 832.70 L 495.01 832.71 L 494.59 831.99 L 495.00 831.27 Z"
     fill="#90b1b0"
     id="path1446" />
  <path
     d="M 513.20 830.98 C 514.91 830.58 515.63 832.57 514.04 833.34 C 512.33 833.73 511.61 831.75 513.20 830.98 Z"
     fill="#708c87"
     id="path1448" />
  <path
     d="M 504.03 832.60 C 504.75 832.62 505.48 832.65 506.20 832.69 C 506.04 833.75 505.87 834.80 505.70 835.86 C 504.76 835.54 503.83 835.22 502.89 834.90 C 503.25 834.12 503.63 833.35 504.03 832.60 Z"
     fill="#6f8881"
     id="path1450" />
  <path
     d="M 521.25 833.04 L 521.97 832.63 L 522.69 833.04 L 522.69 833.87 L 521.97 834.28 L 521.25 833.87 L 521.25 833.04 Z"
     fill="#90aba6"
     id="path1452" />
  <path
     d="M 478.27 834.03 L 479.00 833.62 L 479.72 834.04 L 479.71 834.86 L 478.99 835.27 L 478.27 834.85 L 478.27 834.03 Z"
     fill="#93aba6"
     id="path1454" />
  <path
     d="M 528.13 834.24 C 529.90 833.06 531.06 835.83 528.96 836.25 C 527.83 835.94 527.55 835.27 528.13 834.24 Z"
     fill="#718880"
     id="path1456" />
  <path
     d="M 472.28 836.07 L 473.00 835.66 L 473.72 836.07 L 473.72 836.90 L 473.00 837.30 L 472.28 836.89 L 472.28 836.07 Z"
     fill="#88a29a"
     id="path1460" />
  <path
     d="M 516.34 836.27 C 516.90 836.77 516.90 836.77 516.34 836.27 Z"
     fill="#adc0bc"
     id="path1462" />
  <path
     d="M 524.69 836.71 C 525.83 836.73 526.57 837.16 526.90 837.99 C 526.72 839.72 524.55 839.09 523.88 838.04 L 524.69 836.71 Z"
     fill="#7b8e86"
     id="path1464" />
  <path
     d="M 553.66 836.53 C 554.73 837.18 555.11 838.11 554.80 839.33 C 552.98 839.36 552.22 837.77 553.66 836.53 Z"
     fill="#7e8b81"
     id="path1466" />
  <path
     d="M 516.08 838.41 C 515.94 840.78 515.78 843.15 515.48 845.52 C 513.59 847.78 513.70 850.21 513.46 852.99 C 512.71 852.93 511.96 852.86 511.21 852.79 L 510.91 851.20 C 511.69 850.67 512.47 850.15 513.25 849.62 C 512.97 847.88 512.68 846.14 512.41 844.39 C 512.95 843.65 513.57 842.92 513.99 842.11 C 513.80 841.16 513.41 840.25 513.11 839.34 C 514.10 839.02 515.09 838.72 516.08 838.41 Z"
     fill="#64786c"
     id="path1468" />
  <path
     d="M 468.20 839.21 C 469.98 838.02 471.13 840.80 469.03 841.21 C 467.89 840.90 467.61 840.23 468.20 839.21 Z"
     fill="#657e7a"
     id="path1472" />
  <path
     d="M 503.82 841.73 L 503.08 842.07 L 502.32 841.70 C 501.86 840.80 501.90 840.03 502.45 839.42 C 504.20 838.49 504.61 840.53 503.82 841.73 Z"
     fill="#a9bbbb"
     id="path1474" />
  <path
     d="M 519.00 838.91 L 520.63 838.87 C 521.33 840.18 520.79 842.17 519.08 842.15 C 517.56 841.60 518.49 839.88 519.00 838.91 Z"
     fill="#6e8a84"
     id="path1476" />
  <path
     d="M 499.03 840.25 C 500.15 840.64 501.25 841.19 502.32 841.70 L 503.08 842.07 L 503.82 841.73 C 504.44 841.44 505.05 841.15 505.66 840.86 C 506.17 841.47 506.69 842.07 507.21 842.68 C 505.96 842.98 504.29 844.31 505.22 845.70 C 506.58 846.60 507.83 845.04 508.13 843.82 C 509.56 844.00 510.99 844.19 512.41 844.39 C 512.68 846.14 512.97 847.88 513.25 849.62 C 512.47 850.15 511.69 850.67 510.91 851.20 C 510.00 851.81 509.09 852.41 508.18 853.00 C 508.38 855.08 508.93 857.39 508.50 859.45 C 506.37 862.20 502.85 864.11 499.94 865.97 C 498.62 863.73 497.34 861.40 495.86 859.27 C 494.94 858.74 493.92 859.04 492.79 860.18 C 490.84 857.52 490.02 855.47 489.72 852.18 C 492.23 849.76 493.94 847.44 494.85 844.02 C 496.08 842.66 497.45 841.20 499.03 840.25 Z"
     fill="#2f3e2f"
     id="path1478" />
  <path
     d="M 538.84 839.74 C 539.26 840.95 539.69 842.16 540.13 843.37 C 539.76 843.68 539.38 843.99 539.00 844.29 C 544.28 845.08 549.49 845.09 554.80 844.68 C 558.88 844.31 562.08 845.91 565.81 847.23 C 565.95 848.35 566.08 849.48 566.19 850.61 C 565.57 851.03 564.96 851.46 564.35 851.88 C 563.57 851.21 562.79 850.54 562.00 849.87 C 561.61 851.50 561.28 853.13 560.86 854.74 L 560.25 855.64 C 557.84 852.68 555.47 849.86 552.13 847.92 C 549.18 850.13 546.69 852.51 543.20 853.91 C 542.21 854.05 541.22 854.18 540.22 854.30 C 540.57 855.37 540.93 856.43 541.29 857.50 C 537.48 860.52 534.54 863.87 530.07 866.05 C 527.47 867.35 524.79 867.70 521.95 868.08 C 521.71 866.51 520.99 865.90 519.78 866.26 C 517.16 866.90 514.64 867.83 512.29 869.17 C 511.72 868.38 510.96 867.95 509.99 867.86 C 509.00 867.67 508.01 867.49 507.02 867.30 C 505.52 869.85 504.00 872.41 502.63 875.03 C 500.68 873.80 498.69 872.36 496.53 871.55 C 494.62 871.06 492.51 871.24 490.55 871.24 C 490.07 870.60 489.58 869.96 489.09 869.32 C 487.90 869.99 486.72 870.67 485.52 871.30 C 484.94 870.28 484.36 869.26 483.77 868.24 C 482.68 868.59 481.59 868.93 480.50 869.26 C 476.21 867.80 472.36 865.77 468.56 863.32 C 465.40 858.57 462.57 853.83 461.33 848.19 C 464.43 849.68 467.30 851.54 470.08 853.55 C 476.71 851.73 482.87 850.64 489.72 852.18 C 490.02 855.47 490.84 857.52 492.79 860.18 C 493.72 861.80 495.54 860.78 495.86 859.27 C 497.34 861.40 498.62 863.73 499.94 865.97 C 502.85 864.11 506.37 862.20 508.50 859.45 C 508.93 857.39 508.38 855.08 508.18 853.00 C 509.09 852.41 510.00 851.81 510.91 851.20 L 511.21 852.79 C 511.96 852.86 512.71 852.93 513.46 852.99 C 513.70 850.21 513.59 847.78 515.48 845.52 C 515.67 847.12 515.90 848.73 516.10 850.34 C 518.58 850.00 521.28 849.58 523.78 849.85 C 524.59 851.01 525.26 852.31 525.94 853.56 C 526.68 853.57 527.43 853.56 528.18 853.54 C 529.09 851.70 530.03 849.86 530.90 848.00 C 532.63 848.78 533.76 847.78 534.24 846.13 C 535.43 843.75 537.08 841.71 538.84 839.74 Z"
     fill="#384536"
     id="path1480" />
  <path
     d="M 538.84 839.74 C 539.83 839.87 540.81 840.03 541.78 840.22 C 542.40 842.13 541.29 842.20 540.13 843.37 C 539.69 842.16 539.26 840.95 538.84 839.74 Z"
     fill="#89978e"
     id="path1482" />
  <path
     d="M 509.25 842.13 L 509.96 841.71 L 510.69 842.12 L 510.70 842.94 L 509.99 843.36 L 509.26 842.96 L 509.25 842.13 Z"
     fill="#859a90"
     id="path1484" />
  <path
     d="M 507.21 842.68 L 508.13 843.82 C 507.83 845.04 506.58 846.60 505.22 845.70 C 504.29 844.31 505.96 842.98 507.21 842.68 Z"
     fill="#788a82"
     id="path1486" />
  <path
     d="M 523.29 843.05 L 524.01 842.64 L 524.73 843.05 L 524.73 843.88 L 524.00 844.28 L 523.28 843.87 L 523.29 843.05 Z"
     fill="#8ca69a"
     id="path1488" />
  <path
     d="M 496.05 846.36 L 496.88 846.32 L 497.31 847.02 L 496.93 847.76 L 496.11 847.79 L 495.67 847.09 L 496.05 846.36 Z"
     fill="#869086"
     id="path1490" />
  <path
     d="M 534.24 846.13 C 533.76 847.78 532.63 848.78 530.90 848.00 C 531.42 846.52 532.63 845.47 534.24 846.13 Z"
     fill="#919d95"
     id="path1492" />
  <path
     d="M 552.13 847.92 C 555.47 849.86 557.84 852.68 560.25 855.64 L 560.86 854.74 C 561.97 853.73 563.14 852.78 564.35 851.88 C 564.96 851.46 565.57 851.03 566.19 850.61 C 566.88 850.77 567.57 850.93 568.26 851.08 C 567.62 853.65 566.64 855.99 565.28 858.26 C 561.48 864.60 557.05 870.58 551.76 875.76 C 544.13 883.52 532.82 887.63 522.04 887.64 C 514.84 887.75 507.85 888.13 500.84 886.15 C 500.61 882.21 500.66 878.57 502.63 875.03 C 504.00 872.41 505.52 869.85 507.02 867.30 C 508.01 867.49 509.00 867.67 509.99 867.86 C 509.22 868.55 509.05 869.26 509.49 869.99 C 510.29 870.50 511.23 870.23 512.29 869.17 C 514.64 867.83 517.16 866.90 519.78 866.26 C 519.92 867.71 520.64 868.32 521.95 868.08 C 524.79 867.70 527.47 867.35 530.07 866.05 C 534.54 863.87 537.48 860.52 541.29 857.50 C 542.04 856.92 542.79 856.35 543.55 855.78 C 543.43 855.16 543.32 854.53 543.20 853.91 C 546.69 852.51 549.18 850.13 552.13 847.92 Z"
     fill="#544e33"
     id="path1494" />
  <path
     d="M 550.22 850.23 C 551.69 849.33 552.88 851.28 551.81 852.42 C 550.36 853.30 549.15 851.37 550.22 850.23 Z"
     fill="#8f9580"
     id="path1496" />
  <path
     d="M 562.00 849.87 C 562.79 850.54 563.57 851.21 564.35 851.88 C 563.14 852.78 561.97 853.73 560.86 854.74 C 561.28 853.13 561.61 851.50 562.00 849.87 Z"
     fill="#757567"
     id="path1498" />
  <path
     d="M 498.29 853.39 C 499.96 852.44 501.20 854.50 499.89 855.74 C 498.22 856.70 496.98 854.63 498.29 853.39 Z"
     fill="#6f7c70"
     id="path1500" />
  <path
     d="M 540.22 854.30 C 541.22 854.18 542.21 854.05 543.20 853.91 C 543.32 854.53 543.43 855.16 543.55 855.78 C 542.79 856.35 542.04 856.92 541.29 857.50 C 540.93 856.43 540.57 855.37 540.22 854.30 Z"
     fill="#90968a"
     id="path1502" />
  <path
     d="M 485.15 855.32 C 486.85 854.36 488.04 856.43 486.72 857.67 C 485.03 858.63 483.82 856.55 485.15 855.32 Z"
     fill="#929b92"
     id="path1504" />
  <path
     d="M 516.08 855.10 C 517.87 853.91 518.98 856.68 516.90 857.11 C 515.77 856.81 515.49 856.14 516.08 855.10 Z"
     fill="#9aa39a"
     id="path1506" />
  <path
     d="M 510.13 857.27 C 511.75 856.35 513.11 858.37 511.81 859.62 C 510.18 860.54 508.83 858.52 510.13 857.27 Z"
     fill="#889786"
     id="path1508" />
  <path
     d="M 495.86 859.27 C 495.54 860.78 493.72 861.80 492.79 860.18 C 493.92 859.04 494.94 858.74 495.86 859.27 Z"
     fill="#8d998e"
     id="path1510" />
  <path
     d="M 468.56 863.32 C 472.36 865.77 476.21 867.80 480.50 869.26 C 482.30 870.40 483.13 872.19 485.52 871.30 C 486.72 870.67 487.90 869.99 489.09 869.32 C 489.58 869.96 490.07 870.60 490.55 871.24 C 492.51 871.24 494.62 871.06 496.53 871.55 C 498.69 872.36 500.68 873.80 502.63 875.03 C 500.66 878.57 500.61 882.21 500.84 886.15 C 496.75 885.16 492.79 884.21 489.36 881.65 C 487.04 879.90 484.83 878.08 482.22 876.76 C 476.40 873.69 471.71 869.10 468.56 863.32 Z"
     fill="#444231"
     id="path1516" />
  <path
     d="M 519.78 866.26 C 520.99 865.90 521.71 866.51 521.95 868.08 C 520.64 868.32 519.92 867.71 519.78 866.26 Z"
     fill="#bdc1b9"
     id="path1518" />
  <path
     d="M 483.77 868.24 C 484.36 869.26 484.94 870.28 485.52 871.30 C 483.13 872.19 482.30 870.40 480.50 869.26 C 481.59 868.93 482.68 868.59 483.77 868.24 Z"
     fill="#646e5f"
     id="path1520" />
  <path
     d="M 509.99 867.86 C 510.96 867.95 511.72 868.38 512.29 869.17 C 511.23 870.23 510.29 870.50 509.49 869.99 C 509.05 869.26 509.22 868.55 509.99 867.86 Z"
     fill="#929683"
     id="path1522" />
  <path
     d="M 537.07 868.26 L 537.89 868.25 L 538.30 868.97 L 537.89 869.69 L 537.07 869.69 L 536.66 868.98 L 537.07 868.26 Z"
     fill="#a49d7e"
     id="path1524" />
  <path
     d="M 513.19 882.29 C 514.87 882.00 515.49 884.17 513.87 884.75 C 512.20 885.02 511.59 882.89 513.19 882.29 Z"
     fill="#8a8367"
     id="path1526" />
</svg>
