<?xml version="1.0" encoding="UTF-8" standalone="no"?>
<svg
   version="1.1"
   viewBox="0 0 1024 1024"
   width="1024.0pt"
   height="1024.0pt"
   id="svg1528"
   sodipodi:docname="letters_KeybotoDev.svg"
   inkscape:version="1.2.2 (b0a8486541, 2022-12-01)"
   inkscape:export-filename="KeybotoDev2.png"
   inkscape:export-xdpi="96"
   inkscape:export-ydpi="96"
   xmlns:inkscape="http://www.inkscape.org/namespaces/inkscape"
   xmlns:sodipodi="http://sodipodi.sourceforge.net/DTD/sodipodi-0.dtd"
   xmlns:xlink="http://www.w3.org/1999/xlink"
   xmlns="http://www.w3.org/2000/svg"
   xmlns:svg="http://www.w3.org/2000/svg">
  <defs
     id="defs1532">
    <color-profile
       name="Built-in-display"
       xlink:href="../../../.local/share/icc/edid-44f5670469c9865af3181d03e1a04039.icc"
       id="color-profile2694" />
  </defs>
  <sodipodi:namedview
     id="namedview1530"
     pagecolor="#e1dbce"
     bordercolor="#a3a3a3"
     borderopacity="1"
     inkscape:showpageshadow="0"
     inkscape:pageopacity="1"
     inkscape:pagecheckerboard="0"
     inkscape:deskcolor="#e6e6e6"
     inkscape:document-units="pt"
     showgrid="false"
     inkscape:zoom="0.874216"
     inkscape:cx="673.1746"
     inkscape:cy="915.67759"
     inkscape:window-width="1920"
     inkscape:window-height="1003"
     inkscape:window-x="1368"
     inkscape:window-y="49"
     inkscape:window-maximized="1"
     inkscape:current-layer="svg1528">
    <inkscape:grid
       type="xygrid"
       id="grid1692" />
  </sodipodi:namedview>
  <path
     d="M 398.54 776.44 C 398.61 788.75 398.36 801.08 398.67 813.39 C 402.21 810.12 405.28 806.84 409.65 804.61 C 421.37 798.48 436.50 800.88 445.97 810.04 C 455.59 819.19 458.32 834.02 453.09 846.15 C 449.77 854.01 443.39 860.19 435.53 863.49 C 434.27 863.96 433.01 864.43 431.73 864.84 C 424.47 866.29 417.07 866.05 410.35 862.69 C 405.49 860.36 402.22 856.75 398.54 852.98 C 398.53 856.46 398.54 859.94 398.47 863.42 C 393.97 863.45 389.46 863.53 384.95 863.46 C 383.09 863.40 381.13 863.38 379.90 861.74 C 378.98 859.88 379.48 857.41 381.53 856.58 C 384.62 855.91 387.94 856.20 391.10 855.95 C 391.15 847.70 391.41 839.41 390.90 831.18 C 390.88 829.90 390.91 828.62 390.96 827.34 C 391.39 812.88 391.14 798.36 391.10 783.88 C 387.97 783.74 384.62 784.06 381.55 783.36 C 378.72 782.18 378.69 777.72 381.75 776.76 C 387.24 776.01 392.99 776.62 398.54 776.44 Z"
     fill="#040610"
     id="path1318" />
  <path
     d="M 128.99 782.43 C 136.35 782.43 143.70 782.44 151.06 782.43 C 153.33 782.59 155.35 782.19 156.73 784.41 C 157.03 786.24 157.04 788.05 155.40 789.26 C 151.23 790.21 146.68 789.61 142.41 789.93 C 142.51 800.69 142.33 811.45 142.51 822.21 C 147.39 818.57 151.71 814.31 156.40 810.38 C 164.01 803.61 171.90 797.12 179.31 790.13 C 176.88 789.81 174.18 789.87 171.88 789.00 C 169.90 786.82 170.28 783.22 173.51 782.65 C 180.18 782.23 187.05 782.39 193.73 782.56 C 196.88 782.76 198.17 785.80 196.50 788.41 C 194.09 790.15 190.74 789.36 188.50 791.54 C 179.00 799.93 169.25 808.08 159.93 816.69 C 163.92 818.80 167.77 820.77 171.05 823.95 C 178.48 830.95 182.88 841.90 186.73 851.18 C 187.48 852.59 187.87 855.11 189.28 855.91 C 192.49 856.47 196.15 855.74 199.25 856.74 C 201.98 858.29 201.29 862.87 197.96 863.26 C 193.07 863.73 188.08 863.43 183.17 863.35 C 179.80 854.04 176.19 844.48 170.97 836.03 C 167.18 829.81 160.66 823.84 153.35 822.44 C 149.53 825.21 146.26 828.70 142.51 831.58 C 142.34 839.70 142.50 847.83 142.41 855.96 C 146.65 856.36 151.15 855.72 155.29 856.66 C 157.17 857.73 157.02 859.67 156.68 861.52 C 154.99 864.09 151.64 863.29 149.02 863.49 C 141.39 863.27 133.65 863.80 126.05 863.23 C 122.86 862.51 122.34 858.69 124.80 856.83 C 127.87 855.73 131.63 856.26 134.86 856.07 C 134.90 834.00 134.87 811.94 134.88 789.87 C 131.80 789.75 128.52 790.05 125.51 789.38 C 123.10 788.66 122.46 784.88 124.44 783.42 C 125.59 782.37 127.53 782.52 128.99 782.43 Z"
     fill="#040610"
     id="path1326" />
  <path
     d="M 748.95 782.41 C 758.63 782.48 768.30 782.40 777.98 782.45 C 787.25 782.44 796.20 786.78 802.22 793.79 C 808.06 800.43 811.16 809.20 811.44 817.99 C 811.62 825.89 811.82 833.31 808.92 840.82 C 804.44 853.10 793.32 862.53 780.05 863.38 C 769.70 863.59 759.33 863.37 748.98 863.49 C 746.95 863.39 744.27 863.74 742.53 862.55 C 740.62 861.25 740.95 858.05 742.76 856.79 C 745.03 856.09 747.56 856.08 749.92 855.83 C 750.54 848.86 749.75 841.96 749.93 835.00 C 750.38 828.99 749.52 823.02 750.02 817.00 C 750.48 810.98 749.64 805.01 750.03 799.00 C 750.19 796.03 750.13 793.06 749.94 790.09 C 747.60 789.82 745.05 789.87 742.81 789.13 C 740.73 787.65 740.64 784.23 742.99 782.96 C 744.83 782.30 747.02 782.47 748.95 782.41 Z"
     fill="#040610"
     id="path1330" />
  <path
     d="M 590.30 786.03 C 590.67 791.74 590.39 797.52 590.39 803.24 C 598.57 803.71 606.80 803.31 615.00 803.43 C 617.97 803.53 621.28 803.11 624.16 803.92 C 626.26 805.07 626.09 807.32 625.37 809.28 C 624.03 810.86 621.94 810.66 620.05 810.80 C 610.21 810.84 600.37 810.75 590.53 810.83 C 590.39 822.90 590.45 834.99 590.48 847.06 C 590.43 851.37 592.60 854.43 596.33 856.35 C 597.84 857.00 599.38 857.56 600.96 858.02 C 610.23 859.04 620.66 857.17 629.05 853.06 C 630.27 852.56 631.41 851.98 632.76 852.16 C 635.13 852.47 636.44 855.72 634.71 857.53 C 632.12 860.42 627.47 861.67 623.88 862.86 C 613.92 865.76 602.07 867.44 592.39 862.74 C 591.41 862.21 590.44 861.65 589.47 861.08 C 586.54 858.19 583.89 855.14 583.33 850.90 C 582.54 845.02 583.05 838.93 582.90 833.00 C 582.66 825.57 583.09 818.15 582.83 810.72 C 578.93 810.74 574.88 811.09 571.02 810.49 C 567.64 809.86 567.38 804.64 570.72 803.74 C 574.72 803.15 578.88 803.53 582.92 803.35 C 583.03 797.63 582.57 791.79 583.21 786.10 C 583.09 782.03 590.22 781.98 590.30 786.03 Z"
     fill="#040610"
     id="path1332" />
  <path
     d="M 270.91 811.09 C 277.38 817.66 280.05 826.48 279.83 835.57 C 259.95 835.60 240.06 835.49 220.18 835.62 C 220.81 841.77 223.99 847.36 228.56 851.43 C 234.50 856.52 242.27 858.73 250.02 858.30 C 257.72 857.77 265.17 855.91 271.73 851.74 C 273.15 851.02 275.09 849.34 276.73 850.09 C 279.37 850.72 279.83 854.20 278.00 855.99 C 275.11 859.17 270.51 861.03 266.53 862.44 C 255.99 865.90 244.53 867.29 233.98 863.06 C 222.25 858.59 213.50 847.68 212.52 835.05 C 211.53 824.79 216.09 814.49 224.34 808.32 C 237.82 798.04 258.89 798.87 270.91 811.09 Z"
     fill="#040610"
     id="path1344" />
  <path
     d="M 889.84 812.16 C 895.69 818.64 897.97 826.95 897.80 835.56 C 877.85 835.62 857.89 835.45 837.94 835.64 C 838.80 839.59 839.91 843.36 842.32 846.67 C 847.58 854.42 856.83 858.40 866.04 858.35 C 874.24 858.19 882.78 856.15 889.75 851.72 C 891.18 850.99 893.08 849.35 894.73 850.08 C 897.58 850.82 897.50 854.91 895.50 856.52 C 891.78 860.01 886.32 861.92 881.50 863.37 C 870.92 866.35 860.01 866.94 849.84 862.16 C 838.50 856.98 830.51 845.60 830.40 833.01 C 830.00 822.95 835.18 813.10 843.47 807.47 C 857.34 797.80 878.43 799.31 889.84 812.16 Z"
     fill="#040610"
     id="path1350" />
  <path
     d="M 301.09 803.51 C 307.27 803.41 313.55 803.29 319.73 803.59 C 323.29 803.64 323.92 808.63 321.21 810.18 C 318.46 811.09 315.22 810.73 312.35 810.95 C 319.40 825.54 326.90 839.94 334.25 854.38 C 337.79 849.01 340.20 842.91 343.23 837.23 C 347.45 828.41 352.36 819.84 356.12 810.82 C 353.19 810.73 349.93 811.09 347.10 810.24 C 344.38 808.81 344.69 804.39 347.85 803.67 C 351.98 803.51 356.11 803.51 360.24 803.34 C 362.87 803.41 365.64 803.25 368.21 803.82 C 370.75 804.79 370.13 806.93 370.17 809.11 C 368.97 809.71 367.79 810.36 366.58 810.94 C 365.76 811.03 364.94 811.11 364.12 811.18 C 360.84 817.28 357.84 823.54 354.68 829.72 C 345.95 847.24 336.83 864.61 328.34 882.25 C 331.79 882.53 335.68 881.95 339.01 882.97 C 341.07 883.75 341.06 886.49 340.26 888.17 C 338.83 889.93 336.10 889.62 334.06 889.74 C 324.35 889.71 314.65 889.70 304.94 889.74 C 302.65 889.63 300.43 889.95 298.62 888.27 C 297.83 886.00 297.79 883.28 300.68 882.69 C 307.00 881.85 313.59 882.77 319.96 882.27 C 321.73 880.61 322.62 877.89 323.76 875.78 C 325.70 871.46 328.28 867.36 329.92 862.92 C 329.63 861.24 328.68 859.61 327.92 858.09 C 319.75 842.54 311.95 826.81 303.79 811.26 C 301.61 810.63 297.49 810.76 297.24 807.76 C 296.78 805.17 298.59 803.52 301.09 803.51 Z"
     fill="#040610"
     id="path1354" />
  <path
     d="M 914.52 803.71 C 919.61 803.10 924.87 803.60 930.00 803.44 C 933.67 803.55 937.59 803.08 941.19 803.84 C 944.24 804.92 943.79 809.98 940.68 810.48 C 937.38 811.02 933.93 810.75 930.59 810.91 C 936.58 824.89 943.31 838.57 949.50 852.47 C 950.48 853.95 950.55 856.39 952.84 855.92 C 955.14 852.03 956.66 847.68 958.62 843.61 C 963.44 832.68 968.60 821.89 973.23 810.87 C 969.69 810.71 965.97 811.10 962.49 810.41 C 959.51 809.59 959.40 804.48 962.52 803.73 C 967.60 803.08 972.87 803.60 978.00 803.44 C 981.68 803.55 985.59 803.09 989.21 803.82 C 992.07 804.72 991.98 809.18 989.43 810.27 C 986.80 810.96 983.91 810.80 981.21 811.05 C 974.36 826.23 967.42 841.36 960.59 856.54 C 959.50 858.79 958.66 861.47 957.01 863.37 C 953.57 863.45 949.58 863.92 946.27 863.04 C 938.07 846.05 930.55 828.53 922.38 811.53 C 920.37 810.26 916.87 811.11 914.48 810.42 C 911.41 809.77 911.31 804.33 914.52 803.71 Z"
     fill="#040610"
     id="path1358" />
</svg>
